<svg xmlns="http://www.w3.org/2000/svg" xmlns:xlink="http://www.w3.org/1999/xlink" width="15" height="15" zoomAndPan="magnify" viewBox="0 0 375 374.999991"  preserveAspectRatio="xMidYMid meet" version="1.0"><defs><clipPath id="4418e0ac8d"><path d="M 34.089844 0 L 340.839844 0 L 340.839844 375 L 34.089844 375 Z M 34.089844 0 " clip-rule="nonzero"/></clipPath></defs><g clip-path="url(#4418e0ac8d)"><path fill="#fff" d="M 85.214844 34.09375 C 75.804688 34.09375 68.175781 41.726562 68.175781 51.140625 L 68.175781 323.859375 C 68.175781 333.273438 75.804688 340.902344 85.214844 340.902344 L 289.714844 340.902344 C 299.128906 340.902344 306.757812 333.273438 306.757812 323.859375 L 306.757812 135 C 306.757812 130.023438 304.582031 125.296875 300.808594 122.058594 L 202.988281 38.199219 C 199.902344 35.550781 195.96875 34.09375 191.898438 34.09375 Z M 34.089844 51.140625 C 34.089844 22.898438 56.980469 0.00390625 85.214844 0.00390625 L 191.898438 0.00390625 C 204.105469 0.00390625 215.90625 4.371094 225.171875 12.316406 L 322.988281 96.175781 C 334.320312 105.890625 340.839844 120.070312 340.839844 135 L 340.839844 323.859375 C 340.839844 352.101562 317.953125 374.992188 289.714844 374.992188 L 85.214844 374.992188 C 56.980469 374.992188 34.089844 352.101562 34.089844 323.859375 Z M 34.089844 51.140625 " fill-opacity="1" fill-rule="evenodd"/></g><path fill="#fff" d="M 187.464844 85.230469 L 187.464844 25.574219 L 221.550781 25.574219 L 221.550781 85.230469 C 221.550781 94.644531 229.179688 102.273438 238.589844 102.273438 L 315.277344 102.273438 L 315.277344 136.363281 L 238.589844 136.363281 C 210.355469 136.363281 187.464844 113.472656 187.464844 85.230469 Z M 187.464844 85.230469 " fill-opacity="1" fill-rule="evenodd"/><path fill="#fff" d="M 119.300781 289.769531 L 255.632812 289.769531 L 255.632812 323.859375 L 119.300781 323.859375 Z M 119.300781 289.769531 " fill-opacity="1" fill-rule="evenodd"/><path fill="#fff" d="M 170.425781 153.410156 L 204.507812 153.410156 L 204.507812 255.679688 L 170.425781 255.679688 Z M 170.425781 153.410156 " fill-opacity="1" fill-rule="evenodd"/><path fill="#fff" d="M 175.417969 267.730469 C 182.070312 274.386719 192.863281 274.386719 199.519531 267.730469 L 250.644531 216.597656 L 226.542969 192.492188 L 187.46875 231.574219 L 148.390625 192.492188 L 124.292969 216.597656 Z M 175.417969 267.730469 " fill-opacity="1" fill-rule="evenodd"/></svg>